<svg xmlns="http://www.w3.org/2000/svg" viewBox="0 0 200 200" width="200" height="200">
  <defs>
    <linearGradient id="analyticsGradient" x1="0%" y1="0%" x2="100%" y2="100%">
      <stop offset="0%" style="stop-color:#6366f1;stop-opacity:1" />
      <stop offset="100%" style="stop-color:#8b5cf6;stop-opacity:1" />
    </linearGradient>
  </defs>

  <!-- Circle background -->
  <circle cx="100" cy="100" r="95" fill="url(#analyticsGradient)" opacity="0.1"/>

  <!-- Dashboard elements -->
  <rect x="50" y="65" width="100" height="70" fill="none" stroke="#6366f1" stroke-width="2" rx="4"/>

  <!-- Grid lines -->
  <line x1="50" y1="80" x2="150" y2="80" stroke="#6366f1" stroke-width="1" opacity="0.3"/>
  <line x1="50" y1="95" x2="150" y2="95" stroke="#6366f1" stroke-width="1" opacity="0.3"/>
  <line x1="75" y1="65" x2="75" y2="135" stroke="#6366f1" stroke-width="1" opacity="0.3"/>
  <line x1="100" y1="65" x2="100" y2="135" stroke="#6366f1" stroke-width="1" opacity="0.3"/>
  <line x1="125" y1="65" x2="125" y2="135" stroke="#6366f1" stroke-width="1" opacity="0.3"/>

  <!-- Chart bars -->
  <rect x="58" y="110" width="8" height="20" fill="#6366f1" rx="1"/>
  <rect x="72" y="100" width="8" height="30" fill="#8b5cf6" rx="1"/>
  <rect x="86" y="105" width="8" height="25" fill="#6366f1" rx="1"/>
  <rect x="100" y="95" width="8" height="35" fill="#8b5cf6" rx="1"/>
  <rect x="114" y="107" width="8" height="23" fill="#6366f1" rx="1"/>
  <rect x="128" y="100" width="8" height="30" fill="#8b5cf6" rx="1"/>

  <!-- Text -->
  <text x="100" y="160" font-family="DM Sans, sans-serif" font-size="13" font-weight="600" text-anchor="middle" fill="#6366f1">BUSINESS</text>
  <text x="100" y="176" font-family="DM Sans, sans-serif" font-size="13" font-weight="600" text-anchor="middle" fill="#6366f1">ANALYTICS</text>
</svg>
